<?xml version="1.0" encoding="utf-8"?>
<!-- Generator: Adobe Illustrator 25.4.1, SVG Export Plug-In . SVG Version: 6.00 Build 0)  -->
<svg version="1.1" id="Layer_1" xmlns="http://www.w3.org/2000/svg" xmlns:xlink="http://www.w3.org/1999/xlink" x="0px" y="0px"
	 viewBox="0 0 255.8 337.2" style="enable-background:new 0 0 255.8 337.2;" xml:space="preserve">
<style type="text/css">
	.st0{fill:#FFCE00;}
	.st1{fill:#FFE1C5;}
	.st2{fill:#F4B49D;}
	.st3{filter:url(#Adobe_OpacityMaskFilter);}
	.st4{fill:url(#SVGID_00000098915965023619882520000001513267204185630362_);}
	.st5{mask:url(#SVGID_1_);fill:#FFE9D9;}
	.st6{fill:#FFCFAE;}
	.st7{opacity:0.6;fill:#FFF1E6;}
	.st8{filter:url(#Adobe_OpacityMaskFilter_00000135681411828689317200000017519626450758067126_);}
	.st9{fill:url(#SVGID_00000084528680885405645150000004524460155783407527_);}
	.st10{mask:url(#SVGID_00000083067196631700941130000016766640352549993615_);fill:#FFE9D9;}
	.st11{filter:url(#Adobe_OpacityMaskFilter_00000036935592940583021920000014292868788324946352_);}
	.st12{fill:url(#SVGID_00000091694463436213980440000008937682110540436613_);}
	.st13{mask:url(#SVGID_00000051373159483626579180000008920733614572086679_);fill:#FFE9D9;}
	.st14{filter:url(#Adobe_OpacityMaskFilter_00000082327089481069481330000016257782315927712131_);}
	.st15{fill:url(#SVGID_00000176030828517177069070000009744075882956636039_);}
	.st16{mask:url(#SVGID_00000112624971074854136560000003150980070031225263_);fill:#FFE9D9;}
	.st17{filter:url(#Adobe_OpacityMaskFilter_00000072267870735796348680000004850102880158521987_);}
	.st18{fill:url(#SVGID_00000057844696495629932770000012063046312423869842_);}
	.st19{mask:url(#SVGID_00000142146251815603752290000011718777282120483990_);fill:#FFE9D9;}
</style>
<g>
	<g>
		<path class="st0" d="M92.3,90.2c1.4,0-0.7-0.1-0.1-0.1c11-0.9,7.4-21.6,3.5-26.7c-3.2-4.2,2.2-7.1-2.5-9.2c2.7,0-2-0.1-1.2-0.1
			c9.6-0.8,6.1-18.9,2.7-23.3c-5.4-7.1-1.1-9.8-10.4-12.2c-13.9-3.6-36.7-4.1-51.1-1.5c-4,0.7-13.3-0.2-13.9,16
			c-0.2,6.3,0.6,11.4,1.5,14.9c0,0,0,0,0,0c-5.2,0.6-13,2.3-13.6,18.1c-0.4,11.6,2.3,19.5,3.5,22.4c-4.8,1.8-9.7,6.1-9.5,19.4
			c0.3,13.6,4.2,22.2,5.5,24.6c-3.3,2.3-6.2,6.4-6.6,13.9c-0.8,13.3,3.7,20.2,3.7,20.2l77.9-7.3c0,0-1.6,8.6,11.7,4
			c9.3-3.2,12.7-22.9,4.7-31.1c-1.6-1.7-0.6-2.9-2.7-3.9c0.1,0,0.2,0,0.3,0c11.9-1.7,6.9-24.1,2.4-29.3
			C94.8,94.9,96.8,92.2,92.3,90.2z M23.2,47.6c-0.2,0-0.3,0.1-0.5,0.1C22.8,47.7,23,47.6,23.2,47.6z M22,47.8c-0.2,0-0.3,0-0.5,0.1
			C21.7,47.8,21.9,47.8,22,47.8z M22.6,47.7c-0.2,0-0.3,0-0.5,0.1C22.3,47.7,22.4,47.7,22.6,47.7z M83.8,49.8
			C83.8,49.8,83.8,49.8,83.8,49.8C83.8,49.8,83.8,49.8,83.8,49.8z"/>
		<path class="st0" d="M196.9,239.9c-9.3,22.1-9.4,37.8-10.5,47.7c-0.8,6.6-3.8,14-5,24.4c-2,16.3-3.5,20.4-4.3,22.1
			c-0.8,1.7-18.1,9.9-34.3-9.9c-19.4-23.6-9.5-55.2-8.8-69.7c1.4-34.4-2.7-53.2-17.4-59.5c-13.9-5.9-69.6-6.6-85.7-10.8
			c-19.7-5.2-27.3-18-27.3-18s33.8-39.5,34.6-69.1C39,67.6,25.4,19,25.4,19s13.7-14.7,47-16c27-1.1,28.2,1.5,41.3,0.6
			c16.9-1.2,29.6-4.2,39.9-3.5c14.3,0.9,30.2,3.6,46,11.7c20.1,10.4,19.6,20,29.3,30c8.2,8.5,12.3,9.6,15.6,13.3
			c3.8,4.2,10.5,19.9,11.2,46.7c0.8,31.7-7.2,54.5-8.7,58.7c-3.7,10.5-12.2,15.1-19.7,23.5C218.7,193.8,205.8,218.6,196.9,239.9z"/>
		<path class="st1" d="M196.9,239.9c-9.3,22.1-9.4,37.8-10.5,47.7c-0.8,6.6-3.8,14-5,24.4c-2,16.3-3.5,20.4-4.3,22.1
			c-0.8,1.7-18.1,9.9-34.3-9.9c-19.4-23.6-9.5-55.2-8.8-69.7c1.4-34.4-2.7-53.2-17.4-59.5c-13.9-5.9-69.6-6.6-85.7-10.8
			c-19.7-5.2-27.3-18-27.3-18s33.8-39.5,34.6-69.1C39,67.6,25.4,19,25.4,19s13.7-14.7,47-16c27-1.1,28.2,1.5,41.3,0.6
			c16.9-1.2,29.6-4.2,39.9-3.5c14.3,0.9,30.2,3.6,46,11.7c20.1,10.4,19.6,20,29.3,30c8.2,8.5,12.3,9.6,15.6,13.3
			c3.8,4.2,10.5,19.9,11.2,46.7c0.8,31.7-7.2,54.5-8.7,58.7c-3.7,10.5-12.2,15.1-19.7,23.5C218.7,193.8,205.8,218.6,196.9,239.9z"/>
		<path class="st1" d="M92,54c-0.8,0.1,3.9,0.1,1.2,0.1c-4.4-2-6.1-3.5-11.3-4.8c-15.9-4.1-42.1-4.7-58.7-1.7
			c-0.7,0.1-1.5,0.2-2.4,0.3c-0.9-3.5-1.8-8.5-1.5-14.9c0.6-16.2,10-15.3,13.9-16c14.4-2.6,37.2-2.1,51.1,1.5
			c9.3,2.4,5,5.2,10.4,12.2C98,35.2,101.6,53.2,92,54z"/>
		<path class="st2" d="M247.1,160.5c-0.1,0.4-0.3,0.8-0.4,1.2c0,0.1-0.1,0.2-0.1,0.3c-0.1,0.3-0.2,0.6-0.4,0.8
			c0,0.1-0.1,0.2-0.1,0.3c-0.2,0.4-0.3,0.7-0.5,1.1c0,0,0,0,0,0.1c-0.2,0.3-0.3,0.6-0.5,1c-0.1,0.1-0.1,0.2-0.2,0.3
			c-0.2,0.3-0.3,0.5-0.5,0.7c-0.1,0.1-0.1,0.2-0.2,0.3c-0.2,0.3-0.4,0.6-0.6,0.9c0,0,0,0.1-0.1,0.1c-0.2,0.3-0.4,0.6-0.6,0.8
			c-0.1,0.1-0.1,0.2-0.2,0.3c-0.2,0.2-0.4,0.5-0.5,0.7c-0.1,0.1-0.1,0.1-0.2,0.2c-0.2,0.3-0.5,0.6-0.7,0.9c0,0-0.1,0.1-0.1,0.1
			c-0.2,0.2-0.4,0.5-0.7,0.7c-0.1,0.1-0.1,0.2-0.2,0.2c-0.2,0.2-0.4,0.4-0.6,0.6c-0.1,0.1-0.1,0.1-0.2,0.2c-0.3,0.3-0.5,0.5-0.8,0.8
			c0,0-0.1,0.1-0.1,0.1c-0.2,0.2-0.5,0.4-0.7,0.7c-0.1,0.1-0.2,0.2-0.2,0.2c-0.2,0.2-0.4,0.4-0.7,0.6c-0.1,0.1-0.1,0.1-0.2,0.2
			c-0.3,0.3-0.6,0.5-0.9,0.8c-0.1,0-0.1,0.1-0.2,0.1c-0.3,0.2-0.5,0.5-0.8,0.7c0,0,0,0,0,0c0.1-0.1,10.2-9.7,14.2-37.5
			c2-14,1.2-35.8-1.8-51.2c-3-15.4-8-23-17.1-30.2c-8.5-6.7-10.9-19.2-18.3-26.2c-9.5-8.8-17.8-17.7-37.5-22
			c-23.8-5.2-50.9-0.6-70.1-1.5C88.4,7.3,77.5,5.6,63,7.7c-23.1,3.4-33.6,9.8-37.5,11.5c-0.1-0.2-0.1-0.3-0.1-0.3s13.7-14.7,47-16
			c27-1.1,28.2,1.5,41.3,0.6c16.9-1.2,29.6-4.2,39.9-3.5c14.3,0.9,30.2,3.6,46,11.7c20.1,10.4,19.6,20,29.3,30
			c8.2,8.5,12.3,9.6,15.6,13.3c3.8,4.2,10.5,19.9,11.2,46.7C256.5,133.5,248.6,156.3,247.1,160.5z"/>
		<path class="st0" d="M93.4,163.2c-13.4,4.6-11.7-4-11.7-4l-3.8,0.4c1.2-2.5,3.4-8.1,3.7-16.5c0.3-8.2-1.2-14.6-2.3-18.1
			c0.6,0,1.2,0,1.6,0c6.4,0,9.3-1.1,17.2,7.1C106,140.3,102.7,160,93.4,163.2z"/>
		<path class="st1" d="M11.3,89.6c0,0-4.6-8.7-4.1-23.6c0.7-18.6,11.4-17.6,16-18.4c16.5-3,42.7-2.4,58.7,1.7
			c10.7,2.8,7.6,5.9,13.8,14.1c3.9,5.1,7.5,25.8-3.5,26.7C84.9,90.7,11.3,89.6,11.3,89.6z"/>
		<path class="st1" d="M7.1,133.1c0,0-5.6-9.1-5.9-25.3C0.9,87.5,12.6,88,17.5,86.8c17.8-4.3,46.2-5.2,63.7-1.7
			c11.8,2.4,9.7,5.2,16.9,13.6c4.5,5.3,9.5,27.7-2.4,29.3C87.8,129.2,7.1,133.1,7.1,133.1z"/>
		<path class="st1" d="M3.8,166.5c0,0-4.4-6.9-3.7-20.2c0.8-13.3,9.2-15.9,14.2-16.8c18.1-3.2,59.1-4.5,66.6-4.5
			c6.4,0,9.3-1.1,17.2,7.1c7.9,8.2,4.6,27.9-4.7,31.1c-13.4,4.6-11.7-4-11.7-4L3.8,166.5z"/>
		<path class="st2" d="M142.8,324.2c-19.4-23.6-9.5-55.2-8.8-69.7c1.4-34.4-2.7-53.2-17.4-59.5c-13.9-5.9-64.8-5.2-85.7-10.8
			c-18.4-5-24-11.4-27.3-18c-1.1-2.2-4.2-8.1-3.5-20c0.4-7.5,3.3-11.6,6.6-13.9c0,0,0,0,0,0c-1.3-2.4-5.2-11-5.5-24.6
			C1,94.5,5.9,90.2,10.7,88.4c-1.2-2.9-4-10.7-3.5-22.4c0.6-15.8,8.4-17.5,13.6-18.1c0,0,0,0,0,0c-0.9-3.5-1.6-8.5-1.5-14.9
			c0.1-14.6,10.2-17.9,16.2-21c4-0.6,13.9-1.6,13.9-1.6S25.6,15.2,24,29.6c-0.8,6.7-1,11.2,1.5,13.4c2.4,2.2,12.3,0.5,15.4,0.1
			c3.2-0.3,4.4,1.2,4.5,2.7c0.1,1-1.1,2.4-5.1,2.9c-4,0.5-10.6,0.9-13.4,1.2c-9.3,1.3-13.9,6.5-14.8,12.1
			c-1.2,7.6-0.5,13.2,2.1,18.3c1.4,2.8,7.3,1.7,10.8,1.5c1.5-0.1,4-0.4,8-0.8c3.5,0.4,4.3,2.5,4.3,4.1c0,0.8-1.9,2.3-5.2,2.7
			c-4.5,0.4-8.1,0.8-10.4,1.2c-10,1.9-14.7,7.9-15.3,14c-0.8,8.3,0.3,14.4,3.4,19.7c1.7,2.9,8,1.4,11.8,0.9c1.6-0.2,4.5-0.8,9-1.4
			c4.1-0.7,8-0.5,8.3,2.4c0.2,3.2-2.7,4-6.6,4.7c-5.6,0.8-9.4,1.5-11.8,1.9c-10.1,1.8-14.8,7.3-15.3,13.7
			c-2.3,30.2,19.7,38.6,67.9,40c39.1,1.1,50.6-1.7,61.4,18.8c13.6,25.6-4.8,83.9,8.2,109.1c11.5,22.2,25.2,24.1,25.2,24.1
			C161.1,337.5,151.8,335.2,142.8,324.2z"/>
		<defs>
			<filter id="Adobe_OpacityMaskFilter" filterUnits="userSpaceOnUse" x="130.9" y="86.5" width="117.1" height="248.6">
				<feColorMatrix  type="matrix" values="1 0 0 0 0  0 1 0 0 0  0 0 1 0 0  0 0 0 1 0"/>
			</filter>
		</defs>
		<mask maskUnits="userSpaceOnUse" x="130.9" y="86.5" width="117.1" height="248.6" id="SVGID_1_">
			<g class="st3">
				
					<linearGradient id="SVGID_00000085961427996168336880000014429339895937709714_" gradientUnits="userSpaceOnUse" x1="169.8261" y1="824.5144" x2="193.1485" y2="1052.2529" gradientTransform="matrix(1 0 0 -1 0 1191.6112)">
					<stop  offset="0" style="stop-color:#FFFFFF"/>
					<stop  offset="1" style="stop-color:#000000"/>
				</linearGradient>
				<path style="fill:url(#SVGID_00000085961427996168336880000014429339895937709714_);" d="M168.5,335c-4.2,0.1-16-4.4-24.4-22.4
					c-9.5-20.4-2.1-52.4-2.7-75.9c-1.3-46.4-14.6-57.6-9.3-82.8c3.2-15.2,18.2-25.2,22.4-37.7c5-14.9,3.7-29.7,3.7-29.7l95.4,41.1
					c0,0,1.2,14.8-6.4,34.5c-4.6,11.9-14,18.8-20,25.3c-4.1,4.5-8.7,9.4-14,14.3c-12,11.1-21.7,22.2-28.8,53
					c-6.3,27.3-3.1,36.1-5.4,57.5C177.1,328.6,174.8,334.8,168.5,335z"/>
			</g>
		</mask>
		<path class="st5" d="M168.5,335c-4.2,0.1-16-4.4-24.4-22.4c-9.5-20.4-2.1-52.4-2.7-75.9c-1.3-46.4-14.6-57.6-9.3-82.8
			c3.2-15.2,18.2-25.2,22.4-37.7c5-14.9,3.7-29.7,3.7-29.7l89.7,41.1c0,0,1.2,14.8-6.4,34.5c-4.6,11.9-10.9,16.3-16.8,22.9
			c-4.1,4.5-6.1,11.8-11.5,16.7c-12,11.1-21.7,22.2-28.8,53c-6.3,27.3-3.1,36.1-5.4,57.5C177.1,328.6,174.8,334.8,168.5,335z"/>
		<path class="st6" d="M227.4,183.9c-8.8,9.8-21.6,34.7-30.5,55.9c-9.3,22.1-9.4,37.8-10.5,47.7c-0.8,6.6-3.8,14-5,24.4
			c-2,16.3-3.5,20.4-4.3,22.1c-0.1,0.2-0.4,0.5-0.9,0.8c0-1.6,0.3-9.7,1.1-15.4c0.8-6.3,2.7-13.1,3.5-19.2
			c0.9-7.2,0.6-17.8,1.8-28.7c1.2-10.8,5.7-25.7,11.9-41.7c6.2-16,15.7-28.3,25.5-39.9c9.4-11.2,14.4-12.8,14.4-12.8
			C232,179.2,229.7,181.4,227.4,183.9z"/>
		<path class="st7" d="M184.4,297c-1.1,4.3-2.3,9.2-3,15c-1.9,15.5-3.4,20-4.2,21.8c0,0-2.7-0.8-3.8-5.5c-1-4.6-0.5-14.7,1.8-20
			C177.9,302.1,184.4,297,184.4,297L184.4,297z"/>
	</g>
	<defs>
		
			<filter id="Adobe_OpacityMaskFilter_00000085209199132472548100000014501162793866960061_" filterUnits="userSpaceOnUse" x="6.1" y="127.3" width="134.7" height="56.9">
			<feColorMatrix  type="matrix" values="1 0 0 0 0  0 1 0 0 0  0 0 1 0 0  0 0 0 1 0"/>
		</filter>
	</defs>
	
		<mask maskUnits="userSpaceOnUse" x="6.1" y="127.3" width="134.7" height="56.9" id="SVGID_00000165224529554663461690000012759477482649037988_">
		<g style="filter:url(#Adobe_OpacityMaskFilter_00000085209199132472548100000014501162793866960061_);">
			
				<linearGradient id="SVGID_00000056425414124137545020000018169379975371147163_" gradientUnits="userSpaceOnUse" x1="-29.3924" y1="155.7827" x2="168.3881" y2="155.7827">
				<stop  offset="0" style="stop-color:#FFFFFF"/>
				<stop  offset="0.384" style="stop-color:#838383"/>
				<stop  offset="0.8005" style="stop-color:#000000"/>
			</linearGradient>
			<path style="fill:url(#SVGID_00000056425414124137545020000018169379975371147163_);" d="M40,129.6c-12.8,1.7-32.9,1.8-33.8,18.4
				c-0.9,16.8,8.9,25,19.5,29.1c16.6,6.4,30.8,5.9,47.1,6.7c16.3,0.8,52,0.2,52,0.2l16-56.7c0,0-30.9,0-49.4,0
				C73,127.3,57.4,127.3,40,129.6z"/>
		</g>
	</mask>
	<path style="mask:url(#SVGID_00000165224529554663461690000012759477482649037988_);fill:#FFE9D9;" d="M40,129.6
		c-12.8,1.7-32.9,1.8-33.8,18.4c-0.9,16.8,8.9,25,19.5,29.1c16.6,6.4,30.8,5.9,47.1,6.7c16.3,0.8,52,0.2,52,0.2l16-56.7
		c0,0-30.9,0-49.4,0C73,127.3,57.4,127.3,40,129.6z"/>
	<defs>
		
			<filter id="Adobe_OpacityMaskFilter_00000096036151312988372740000012303174799582464701_" filterUnits="userSpaceOnUse" x="6.9" y="84.8" width="120.9" height="38.9">
			<feColorMatrix  type="matrix" values="1 0 0 0 0  0 1 0 0 0  0 0 1 0 0  0 0 0 1 0"/>
		</filter>
	</defs>
	
		<mask maskUnits="userSpaceOnUse" x="6.9" y="84.8" width="120.9" height="38.9" id="SVGID_00000151503892542311009460000016066896819972319382_">
		<g style="filter:url(#Adobe_OpacityMaskFilter_00000096036151312988372740000012303174799582464701_);">
			
				<linearGradient id="SVGID_00000180351478660159932350000004852714893897979539_" gradientUnits="userSpaceOnUse" x1="-71.1889" y1="104.2216" x2="152.729" y2="104.2216">
				<stop  offset="0" style="stop-color:#FFFFFF"/>
				<stop  offset="0.8711" style="stop-color:#000000"/>
			</linearGradient>
			<path style="fill:url(#SVGID_00000180351478660159932350000004852714893897979539_);" d="M50.1,87.5c-13.3,0.8-27.5,1.7-32.9,3.9
				c-3.4,1.4-10.7,6-10.3,16.8c0.3,10.3,2.9,14.4,6.1,15.3c3.2,0.9,16-2.3,31.7-3.5c39.6-3,83.1-2.6,83.1-2.6l-1.7-32.6
				C126.2,84.8,67.2,86.5,50.1,87.5z"/>
		</g>
	</mask>
	<path style="mask:url(#SVGID_00000151503892542311009460000016066896819972319382_);fill:#FFE9D9;" d="M50.1,87.5
		c-13.3,0.8-27.5,1.7-32.9,3.9c-3.4,1.4-10.7,6-10.3,16.8c0.3,10.3,2.9,14.4,6.1,15.3c3.2,0.9,16-2.3,31.7-3.5
		c39.6-3,83.1-2.6,83.1-2.6l-1.7-32.6C126.2,84.8,67.2,86.5,50.1,87.5z"/>
	<defs>
		
			<filter id="Adobe_OpacityMaskFilter_00000028316255286704026170000007720458401396042886_" filterUnits="userSpaceOnUse" x="12.1" y="47.6" width="95.4" height="33.8">
			<feColorMatrix  type="matrix" values="1 0 0 0 0  0 1 0 0 0  0 0 1 0 0  0 0 0 1 0"/>
		</filter>
	</defs>
	
		<mask maskUnits="userSpaceOnUse" x="12.1" y="47.6" width="95.4" height="33.8" id="SVGID_00000121257070608611050320000012345919478536886162_">
		<g style="filter:url(#Adobe_OpacityMaskFilter_00000028316255286704026170000007720458401396042886_);">
			
				<linearGradient id="SVGID_00000103946027366157641180000006865633430671673998_" gradientUnits="userSpaceOnUse" x1="-81.031" y1="64.5205" x2="134.1496" y2="64.5205">
				<stop  offset="0" style="stop-color:#FFFFFF"/>
				<stop  offset="0.8815" style="stop-color:#000000"/>
			</linearGradient>
			<path style="fill:url(#SVGID_00000103946027366157641180000006865633430671673998_);" d="M23.8,51.5c-4.2,0.7-11.2,3.8-11.7,15
				c-0.5,12,3.3,13.8,5.9,14.6c2.6,0.9,11.3-0.3,28.6-1.7c17.3-1.4,60.1-2.8,60.7-2.7c0.6,0.2-1.9-29.1-1.9-29.1S63.4,48,51.1,49
				C42.2,49.7,32.7,50,23.8,51.5z"/>
		</g>
	</mask>
	<path style="mask:url(#SVGID_00000121257070608611050320000012345919478536886162_);fill:#FFE9D9;" d="M23.8,51.5
		c-4.2,0.7-11.2,3.8-11.7,15c-0.5,12,3.3,13.8,5.9,14.6c2.6,0.9,11.3-0.3,28.6-1.7c17.3-1.4,60.1-2.8,60.7-2.7
		c0.6,0.2-1.9-29.1-1.9-29.1S63.4,48,51.1,49C42.2,49.7,32.7,50,23.8,51.5z"/>
	<defs>
		
			<filter id="Adobe_OpacityMaskFilter_00000020359493766426299710000017933420025448450466_" filterUnits="userSpaceOnUse" x="24.4" y="7.5" width="87.3" height="35.6">
			<feColorMatrix  type="matrix" values="1 0 0 0 0  0 1 0 0 0  0 0 1 0 0  0 0 0 1 0"/>
		</filter>
	</defs>
	
		<mask maskUnits="userSpaceOnUse" x="24.4" y="7.5" width="87.3" height="35.6" id="SVGID_00000105420628229818985730000014130361501139713181_">
		<g style="filter:url(#Adobe_OpacityMaskFilter_00000020359493766426299710000017933420025448450466_);">
			
				<linearGradient id="SVGID_00000163066174905476501380000014627494619807151001_" gradientUnits="userSpaceOnUse" x1="10.0059" y1="25.291" x2="147.0443" y2="25.291">
				<stop  offset="0" style="stop-color:#FFFFFF"/>
				<stop  offset="0.6977" style="stop-color:#000000"/>
			</linearGradient>
			<path style="fill:url(#SVGID_00000163066174905476501380000014627494619807151001_);" d="M56.1,9.8c-19.4,3.9-27.5,9.8-29.9,15.5
				c-1.9,4.4-2.5,12.7-0.7,16.2c1.8,3.5,14,0.3,37-0.6c23-0.9,49.2,0.2,49.2,0.2l-3-31.7c0,0-15.3-1.7-32.8-1.8
				C69.5,7.4,61.2,8.7,56.1,9.8z"/>
		</g>
	</mask>
	<path style="mask:url(#SVGID_00000105420628229818985730000014130361501139713181_);fill:#FFE9D9;" d="M56.1,9.8
		c-19.4,3.9-27.5,9.8-29.9,15.5c-1.9,4.4-2.5,12.7-0.7,16.2c1.8,3.5,14,0.3,37-0.6c23-0.9,49.2,0.2,49.2,0.2l-3-31.7
		c0,0-15.3-1.7-32.8-1.8C69.5,7.4,61.2,8.7,56.1,9.8z"/>
</g>
</svg>
