<?xml version="1.0" encoding="utf-8"?>
<!-- Generator: Adobe Illustrator 25.4.1, SVG Export Plug-In . SVG Version: 6.00 Build 0)  -->
<svg version="1.1" id="Layer_1" xmlns="http://www.w3.org/2000/svg" xmlns:xlink="http://www.w3.org/1999/xlink" x="0px" y="0px"
	 viewBox="0 0 949.7 594.3" style="enable-background:new 0 0 949.7 594.3;" xml:space="preserve">
<style type="text/css">
	.st0{fill:#FFE1C5;}
	.st1{fill:#F4B49D;}
	.st2{opacity:0.5;fill:#FFCE00;}
	.st3{fill:#FFE9D7;}
	.st4{filter:url(#Adobe_OpacityMaskFilter);}
	.st5{fill:url(#SVGID_00000080168615588713158060000005384041997361164166_);}
	.st6{mask:url(#SVGID_1_);fill:#FFE9D9;}
	.st7{filter:url(#Adobe_OpacityMaskFilter_00000026148727291378278380000008992065809156091057_);}
	.st8{fill:url(#SVGID_00000085967114007926304100000009994225401361507467_);}
	.st9{mask:url(#SVGID_00000137117477655684509960000016941838845330530984_);fill:#FFE9D9;}
	.st10{filter:url(#Adobe_OpacityMaskFilter_00000059288686261649792830000016539894855923175079_);}
	.st11{fill:url(#SVGID_00000140732894348446879290000006730229204690935170_);}
	.st12{mask:url(#SVGID_00000095297882940867240830000008191508632641843884_);fill:#FFE9D9;}
	.st13{filter:url(#Adobe_OpacityMaskFilter_00000158014942724845401780000005679107107340735422_);}
	.st14{fill:url(#SVGID_00000073718056566390193000000004150006394992708994_);}
	.st15{mask:url(#SVGID_00000044873634142973962250000012117678247611986346_);fill:#FFE9D9;}
	.st16{filter:url(#Adobe_OpacityMaskFilter_00000080891354215680717150000009437424820972933565_);}
	.st17{fill:url(#SVGID_00000116942666986691992280000008154594622913248668_);}
	.st18{mask:url(#SVGID_00000135668891526667498270000003606320940929844877_);fill:#FFE9D9;}
	.st19{fill:#FFCFAE;}
	.st20{filter:url(#Adobe_OpacityMaskFilter_00000054953026702392818530000007220576295774852507_);}
	.st21{fill:url(#SVGID_00000152960216164849413860000000658831355459468961_);}
	.st22{mask:url(#SVGID_00000075870698426372225830000004864828851510034325_);fill:#FFE1C5;}
	.st23{filter:url(#Adobe_OpacityMaskFilter_00000149380968336284982420000015583348429101941685_);}
	.st24{fill:url(#SVGID_00000097476613813739493580000013060642354605466762_);}
	.st25{mask:url(#SVGID_00000153672597010761733790000014188822127597989794_);fill:#FFE9D9;}
	.st26{filter:url(#Adobe_OpacityMaskFilter_00000119827619742961864020000016860302758675127441_);}
	.st27{fill:url(#SVGID_00000138533005454709033500000008998380312055482540_);}
	.st28{mask:url(#SVGID_00000170984060367773200910000016289888024296795833_);fill:#FFE9D9;}
	.st29{filter:url(#Adobe_OpacityMaskFilter_00000141425194771344809480000015154301033294817174_);}
	.st30{fill:url(#SVGID_00000097479557397108843280000015799485926205133728_);}
	.st31{mask:url(#SVGID_00000180362711275348201570000013413102903406523547_);fill:#FFE9D9;}
	.st32{filter:url(#Adobe_OpacityMaskFilter_00000183963065245454458620000016444159803121860799_);}
	.st33{fill:url(#SVGID_00000103965344334674919940000008345377229658802576_);}
	.st34{mask:url(#SVGID_00000033355493907353823360000000756149377376425404_);fill:#FFE9D9;}
	.st35{filter:url(#Adobe_OpacityMaskFilter_00000005978931510481695620000013968276653557447045_);}
	.st36{fill:url(#SVGID_00000178197631837746998890000008512053803743044781_);}
	.st37{mask:url(#SVGID_00000135676985299351829750000013588861651829778583_);fill:#FFE9D9;}
</style>
<g>
	<path class="st0" d="M852.7,24.5c32,2.5,60.5,69.5,70.9,99.1c8.5,24.3,40.7,116,18.4,150.4c-12.3,18.9-87.8,36.7-122.9,61.9
		c-28.1,20.1-62.1,63-62.1,63l-86.1-55.3L426.8,147.3L420,86l111.9-71c0,0,63.7,40.2,147.2,46.2C778.3,68.1,821.9,22.1,852.7,24.5z"
		/>
	<path class="st1" d="M446.3,126.2l20.2-13.9c0,0,9.8,17.9,26.3,30.4c13.3,10.1,49.6,40.4,97.9,40.2c52.4-0.2,84.2-8.9,84.2-8.9
		s-9.1,4.7-4.1,17.5c4.1,10.5,19.6,9,19.6,9s-22.7,19.7-33.7,39.5c-10.2,18.4-13.4,36.4-10.9,45.7c3.5,13,117.1,113.4,117.1,113.4
		l-6.1,8.1L631.2,291.3l-143-115.1L446.3,126.2z"/>
	<g>
		<path class="st1" d="M596.2,189.2c-26.6-0.8-48.7-7-65.5-14.1c-35.8-15.1-55.4-36.7-56.2-37.6c-1.8-2-1.6-5,0.4-6.8
			c2-1.8,4.2-0.9,6,1.1c0.4,0.4,20.1,20.4,54,34.6c45.4,19.1,94.7,17.9,146.5-3.4c2.5-1,5.3,0.2,6.3,2.6c1,2.5-0.2,5.3-2.6,6.3
			C651.7,185.6,621.9,190,596.2,189.2z"/>
	</g>
	<g>
		<path class="st1" d="M638.4,287.2c-0.1,0-0.2,0-0.2,0c-2.7-0.2-4.6-2.5-4.4-5.2c0.2-2.4,5.2-58.6,54.7-82.2
			c2.4-1.1,5.3-0.1,6.4,2.3c1.1,2.4,0.1,5.3-2.3,6.4c-44.5,21.2-49.2,73.8-49.2,74.3C643.2,285.3,641,287.3,638.4,287.2z"/>
	</g>
	<path class="st1" d="M942,273.9c22.3-34.4-9.9-126.1-18.4-150.4c-10.3-29.6-38.8-96.6-70.9-99.1c-4.8-0.4-9.9,0.4-15.5,2l-0.2,0
		c0,0-0.1,0-0.1,0c0.2,0,19.3-3.9,31.7,8.8c19.1,19.5,41,71.5,55.8,131c13.3,53.7-7.8,87.5-18.5,98.9
		c-21.1,22.5-73.7,41.7-92.9,53.5c-16.8,10.3-30.3,20.5-41.5,31.3c-9.7,9.4-15,19.7-25.6,22.4c-10.6,2.7-23.7-10-23.7-10l2.8,14.1
		l1.2,2.5l30.7,19.7c0,0,34-42.9,62.1-63C854.2,310.6,929.7,292.8,942,273.9z"/>
	<path class="st2" d="M156.3,7.1c-17.3-0.7-56.8,28.4-98.1,89C12.2,163.4-4.4,213.7,1,218.8c15.8,15.3,78.1,49.3,116.3,88.7
		c34.4,35.5,28.2,57.3,54.6,81.7c23.1,21.4,148,105.3,188.1,128c37.3,21.1,66.6,34,66.6,34l246.6-229.4c0,0-77-68.7-155.7-134.3
		C438.8,122,396.9,48.1,396.9,48.1s-60.7,32.3-140.3,9.5C199,41.1,174.7,7.8,156.3,7.1z"/>
	<path class="st0" d="M156.3,7.1c-17.3-0.7-56.8,28.4-98.1,89C12.2,163.4-4.4,213.7,1,218.8c15.8,15.3,78.1,49.3,116.3,88.7
		c34.4,35.5,28.2,57.3,54.6,81.7c23.1,21.4,148,105.3,188.1,128c37.3,21.1,66.6,34,66.6,34l246.6-229.4c0,0-77-68.7-155.7-134.3
		C438.8,122,396.9,48.1,396.9,48.1s-60.7,32.3-140.3,9.5C199,41.1,174.7,7.8,156.3,7.1z"/>
	<path class="st0" d="M387.1,532.1c0,0,62.5,33.2,91.3,44.3c32.1,12.3,51.8,16.5,65.6,17.5c13,1,40.7,1.2,47.4-14.9
		c8.7-21.1-1.3-33-12.9-37.9c-14.1-6.1-62.9-25.3-102.2-46.7c-30.6-16.6-71.3-44-71.3-44L387.1,532.1z"/>
	<path class="st0" d="M390.8,441.2c0,0,70.6,52.9,141.1,83.9c34,15,54.1,23,68.8,25.6c13.9,2.4,43.7,5.4,52.5-11.2
		c11.6-21.9,2-35.6-10-42.1c-14.5-8-65.1-33.7-105.2-60.7c-31.2-21-78-59.6-78-59.6L390.8,441.2z"/>
	<path class="st0" d="M451.9,376.4c0,0,68.4,57.3,133.6,92.6c33.5,18.2,53.8,27.3,68.7,30.9c14,3.4,42.5,8.6,54.5-7.8
		c15-20.5,4.5-36.3-7.3-43.8c-14.3-9.2-64.3-38.9-103.5-69.3c-30.5-23.7-70.2-60.9-70.2-60.9L451.9,376.4z"/>
	<path class="st1" d="M563.5,585.7c-64,0.3-172.5-65.9-181.9-71.6c-9.4-5.8-8.5-18.6-22.6-28.9c-11.1-8.1-25.8-7.4-28.3-10.1
		c-2.5-2.7,0.3-30.9-14.4-42.5c-14.7-11.6-26.5-4.3-31.3-8.4c-5.9-5-6.8-25.1-19.7-36.3c-14.7-12.8-32.9-6.1-36.8-9.4
		c-3.9-3.3-2.7-27.2-24.9-40.2c-16.1-9.4-33.1,2.1-42.3-2.4c-7.1-3.5-23-35.2-43.7-58.1c-20.7-22.8-75-32.5-80.6-74.8
		c-5.6-42.2,18.4-73.7,40.5-109.7C94.3,65.7,132,22.2,141.8,11c-20.3,9.8-51.4,37.9-83.6,85C12.2,163.4-4.4,213.7,1,218.8
		c15.8,15.3,78.1,49.3,116.3,88.7c34.4,35.5,28.2,57.3,54.6,81.7c23.1,21.4,148,105.3,188.1,128c9.8,5.5,19,10.5,27.2,14.8l0,0
		c0,0,62.5,33.2,91.3,44.3c32.1,12.3,51.8,16.5,65.6,17.5c13,1,40.7,1.2,47.4-14.9c2.7-6.5,3.6-12.1,3.2-17
		C594.7,562.1,590.5,585.6,563.5,585.7z"/>
	<path class="st1" d="M653.1,539.5c2.2-4.2,3.6-8.1,4.4-11.7c-0.3,1.4-3.5,12.6-18.1,16.7c-14.9,4.2-39.6-3.9-58.8-10.7
		C561.4,527.1,484,489,484,489l-92.3-48.7l-0.9,1c0,0,70.6,52.9,141.1,83.9c34,15,54.1,23,68.8,25.6
		C614.5,553.1,644.4,556.1,653.1,539.5z"/>
	<path class="st0" d="M452.5,380.8c0,0,68.1,56.1,137.1,90.3c33.3,16.5,53,25.5,67.6,28.7c13.8,3,43.4,7.4,52.9-8.7
		c12.5-21.3,3.6-35.4-8-42.5c-14.1-8.6-63.5-36.6-102.3-65.5c-30.2-22.4-75.2-63.1-75.2-63.1L452.5,380.8z"/>
	<path class="st1" d="M710,491.1c2.4-4.1,4-7.9,5-11.4c-0.4,1.4-4.1,12.4-18.8,15.8c-15.1,3.5-39.3-5.8-58.2-13.4
		c-18.9-7.6-94.5-49.2-94.5-49.2l-90-52.9l-1,0.9c0,0,68.1,56.1,137.1,90.3c33.3,16.5,53,25.5,67.6,28.7
		C670.9,502.8,700.5,507.2,710,491.1z"/>
	<path class="st0" d="M339.7,580.9c0,0,18.3,2.7,51.3-6.6c21.4-6,39.7-20.6,39.7-20.6l-50.7-30.3l-16.3-4.2l-5.9,36.7L339.7,580.9z"
		/>
	<path class="st1" d="M456.8,128.6c-38.5-43.3-58.9-78.9-59.8-80.4l-0.1,0c-0.6,0.3-8.3,4.3-21.6,8.4c-12.2,9.1-36.7,27.8-44.6,37
		c-8,9.2-23.1,33-9.5,55.2c13.5,22.2,38.7,21.1,61.1,17.7C422,160.3,449.3,136,456.8,128.6z"/>
	<path class="st0" d="M485,97.9c0,0-28.1,25.5-51.7,39.1c-18.1,10.5-68.4,36.7-96.8,15.5c-29.4-22,1.1-55.4,10.4-63
		c21.8-17.9,43.9-35.9,54.1-44.9c10.2-9,47.4-45,77.2-44.5c29.1,0.5,53.7,14.9,53.7,14.9L485,97.9z"/>
	<path class="st3" d="M324.1,128.9c0,0,19.7,6.9,34.1-3c14.3-9.9,18.5-60.8,18.5-60.8l0,0c-9.1,7.5-19.5,16-29.7,24.4
		C340.6,94.7,324.6,111.6,324.1,128.9z"/>
	<path class="st0" d="M147.1,384.5c2.8-9.2,22.1-46,52.4-31.8c29.7,13.9,13.1,52.8,7.4,62.3c-4.8,8.1-20.6,39.7-50.7,26.2
		C131.7,430.3,144,394.7,147.1,384.5z"/>
	<path class="st0" d="M194.5,428.8c7.4-13.2,30.6-53.7,60.6-31.9c32,23.2,0.2,68.9-4.6,75.8c-4.8,6.9-28.8,36.7-54.8,16.1
		C173.1,470.6,188.5,439.6,194.5,428.8z"/>
	<path class="st0" d="M303.5,444.7c-25.7-17.8-48.4,17.6-53.4,25.1c-4.3,6.4-29.6,39-3.5,59.8c21.6,17.3,50.3-7.2,57.5-19.8
		C311.2,497.2,328.6,462,303.5,444.7z"/>
	<path class="st0" d="M333.3,487.9c-16.8-0.5-38.5,16.3-34.9,52.7c2.5,25.1,22.4,42.1,46.8,40.3c31.2-2.4,22.4-51.2,19.2-63.2
		C362.4,509.9,354.6,488.5,333.3,487.9z"/>
	<path class="st3" d="M158.1,378.3c-0.3-4.8,14.9-33.1,39-19.8c26.6,14.7,6.7,42.6,2.1,43.8c-4.7,1.2-14.3-3-22.6-8
		C168.3,389.2,158.4,383.1,158.1,378.3z"/>
	<path class="st3" d="M212,420.9c-0.8-3.9,4.1-11.9,9-15.9c6.1-4.9,18-12,31-2.8c15.1,10.7,10.6,26.2,8,33.6
		c-2.6,7.4-10,11.3-14.7,10.7C240.5,445.9,212.8,424.9,212,420.9z"/>
	<path class="st3" d="M264.4,464.7c-1.2-3.6,3-9.9,7.3-13.6c5.6-4.8,18-10.8,28.5-4.7c14.2,8.2,13.4,22.8,11.7,30.1
		c-1.6,7.3-6.7,11.3-11.2,11.2C296.2,487.6,265.7,468.3,264.4,464.7z"/>
	<path class="st3" d="M312.2,536.6c-3.7-1.8-5.7-10.3-5.3-16.4c0.5-7.9,5.1-22,17.6-25.6c17-4.9,27.6,6.7,32,13.4
		c4.4,6.7,3.7,13.5,0.3,17C352.4,529.8,315.9,538.4,312.2,536.6z"/>
	<path class="st1" d="M196.4,430.9c-4.3,1.8-23.4,9.1-36.6,2.7c-15.7-7.5-18.7-41.9-2.1-64.2c16.8-22.5,36.5-18.6,36.9-18.5
		c-27.5-8.4-44.9,24.9-47.5,33.6c-3.1,10.1-15.4,45.7,9.2,56.8C174.8,449.6,187.9,440.8,196.4,430.9z"/>
	<path class="st1" d="M257.1,398.3c-0.6-0.5-1.2-1-1.9-1.5c-30-21.7-53.2,18.7-60.6,31.9c-6,10.8-21.4,41.9,1.3,60
		c13.9,11.1,27.3,7.6,37.4,1l0,0c0,0-18.4,6.2-32.7-5.2c-8.7-6.9-9.3-18.1-9.4-30.3c0-13,14.9-46,36.3-57.7
		C240.8,389.2,257.1,398.3,257.1,398.3z"/>
	<path class="st1" d="M302.7,444.2c-25.4-16.5-47.7,18.3-52.6,25.6c-4.3,6.4-29.6,39-3.5,59.8c12,9.5,26,6.3,37.5-0.5
		c0,0-23.6,6.3-36.3-11.6c-13.9-19.4,13-66.3,33.3-74.4C291.7,438.8,302.7,444.2,302.7,444.2z"/>
	<path class="st1" d="M417.8,545c0,0-11.4,15.8-39.3,25.8c-27.7,9.9-65.7,0.5-74.1-19.1c-4.7-10.9-3.5-30.8,1.9-43.7
		c4.7-11.4,14.1-17.3,14.1-17.3h0c-13.1,6.2-24.6,22.5-21.9,49.9c2.3,23.2,19.4,39.4,41.2,40.4l0,0c0,0,18.3,2.7,51.3-6.6
		c21.4-6,39.7-20.6,39.7-20.6l-9.7-6.8L417.8,545z"/>
	<path class="st0" d="M766.6,410.1c-1.3-3-3.1-5.6-5.2-7.8c-1.6-1.8-3.3-3.3-5.1-4.7c-13.5-10.3-50.7-47-88.2-80.2
		c-28.9-25.6-74-64.1-74-64.1l-83.3,61.8c0,0,64.6,60.1,131.4,98.3c6.1,3.5,11.7,6.7,16.9,9.6c17.1,10.4,29.1,15.9,38.9,19.6
		c3.6,1.5,6.9,2.6,10,3.5c0.4,0.1,0.8,0.2,1.3,0.3c11.2,3.4,27.8,7,40.4,2.3c4.8-1.5,8.9-4.1,11.7-8.2c0.7-1.1,1.4-2.1,2-3.1
		C770.3,427.1,770.1,417.7,766.6,410.1z"/>
	<path class="st1" d="M761.4,440.5c2.6-3.9,4.5-7.6,5.6-11.1c-0.5,1.4-4.8,12.1-19.7,14.7c-15.3,2.6-38.9-8.1-57.4-16.8
		c-18.4-8.8-91.4-54.8-91.4-54.8l-86.6-58.2l-1,0.9c0,0,64.6,60.1,131.4,98.3c32.3,18.5,51.4,28.6,65.7,32.7
		C721.6,449.9,750.9,456.1,761.4,440.5z"/>
	<path class="st1" d="M360,506.1c0,0,4.5,15.3,4.5,25.8c0,10.5-3.4,21.1-3.4,21.1s15-12.9,16-29.6c0.6-10.7-3.8-19.5-3.8-19.5
		L360,506.1z"/>
	<defs>
		<filter id="Adobe_OpacityMaskFilter" filterUnits="userSpaceOnUse" x="39.4" y="37.9" width="519.9" height="448.7">
			<feColorMatrix  type="matrix" values="1 0 0 0 0  0 1 0 0 0  0 0 1 0 0  0 0 0 1 0"/>
		</filter>
	</defs>
	<mask maskUnits="userSpaceOnUse" x="39.4" y="37.9" width="519.9" height="448.7" id="SVGID_1_">
		<g class="st4">
			
				<linearGradient id="SVGID_00000088097426970306722430000005074310115501534366_" gradientUnits="userSpaceOnUse" x1="518.7667" y1="501.7427" x2="-25.4303" y2="123.4596" gradientTransform="matrix(0.9996 2.870000e-02 -2.870000e-02 0.9996 80.2404 -69.6846)">
				<stop  offset="0" style="stop-color:#FFFFFF"/>
				<stop  offset="1" style="stop-color:#000000"/>
			</linearGradient>
			<path style="fill:url(#SVGID_00000088097426970306722430000005074310115501534366_);" d="M519.5,193.1
				c42.9,37.6,46.4,63.7,32.5,82.9c-18,24.8-46,19.8-53.7,32.5c-6.8,11.2,1.6,20.4-12.4,41.7c-15.4,23.4-33.6,14.8-40.1,26
				c-5.6,9.8,5.1,20.4-12.4,40.9c-22,25.6-42.4,13.9-47.3,20.8c-5.4,7.6,7.1,16-2.2,34.7c-5.2,10.4-17.4,15.2-19.6,13.8
				c-3.8-2.4-7.6-5.8-14.6-8.6c-6.2-2.5-15-2.6-17.2-4.8c-1-1-1.2-15.8-4.6-26.6c-5.3-16.8-13.6-18.9-18-20.7
				c-8.8-3.6-17.8,0-23.1-3.3c-5.3-3.3-5.4-21.1-21-37.1c-9.9-10.1-29.6-5.3-34.6-8.2c-3.4-2-7-28.2-20.8-38.9
				c-17.4-13.4-37.3-1.2-48.1-7.4c-10.8-6.2-23-33.7-46.7-58.7c-19.6-20.8-61.5-22.6-74.3-63.9C21.4,144,174.5,23.5,204.3,39.3
				c29.7,15.8,32.2,20.9,68.1,25.2c36.9,4.4,63.1,7,61.7,12.8c-2.8,12-46.8,56-2,87.3c41.3,28.8,114.6-22.2,123.4-24.4
				C458.6,139.4,490.8,167.9,519.5,193.1z"/>
		</g>
	</mask>
	<path class="st6" d="M519.5,193.1c42.9,37.6,46.4,63.7,32.5,82.9c-18,24.8-46,19.8-53.7,32.5c-6.8,11.2,1.6,20.4-12.4,41.7
		c-15.4,23.4-33.6,14.8-40.1,26c-5.6,9.8,5.1,20.4-12.4,40.9c-22,25.6-42.4,13.9-47.3,20.8c-5.4,7.6,7.1,16-2.2,34.7
		c-5.2,10.4-17.4,15.2-19.6,13.8c-3.8-2.4-7.6-5.8-14.6-8.6c-6.2-2.5-15-2.6-17.2-4.8c-1-1-1.2-15.8-4.6-26.6
		c-5.3-16.8-13.6-18.9-18-20.7c-8.8-3.6-17.8,0-23.1-3.3c-5.3-3.3-5.4-21.1-21-37.1c-9.9-10.1-29.6-5.3-34.6-8.2
		c-3.4-2-7-28.2-20.8-38.9c-17.4-13.4-37.3-1.2-48.1-7.4c-10.8-6.2-23-33.7-46.7-58.7c-19.6-20.8-61.5-22.6-74.3-63.9
		C21.4,144,174.5,23.5,204.3,39.3c29.7,15.8,32.2,20.9,68.1,25.2c36.9,4.4,63.1,7,61.7,12.8c-2.8,12-46.8,56-2,87.3
		c41.3,28.8,114.6-22.2,123.4-24.4C458.6,139.4,490.8,167.9,519.5,193.1z"/>
	<defs>
		
			<filter id="Adobe_OpacityMaskFilter_00000005241873977157458060000014535359140314336692_" filterUnits="userSpaceOnUse" x="148.2" y="352.1" width="66.7" height="83.3">
			<feColorMatrix  type="matrix" values="1 0 0 0 0  0 1 0 0 0  0 0 1 0 0  0 0 0 1 0"/>
		</filter>
	</defs>
	
		<mask maskUnits="userSpaceOnUse" x="148.2" y="352.1" width="66.7" height="83.3" id="SVGID_00000150079805374188563000000000496660573970634412_">
		<g style="filter:url(#Adobe_OpacityMaskFilter_00000005241873977157458060000014535359140314336692_);">
			
				<linearGradient id="SVGID_00000097486522358217866970000004248971987444392861_" gradientUnits="userSpaceOnUse" x1="199.8823" y1="358.1816" x2="161.3585" y2="426.243">
				<stop  offset="0" style="stop-color:#FFFFFF"/>
				<stop  offset="1" style="stop-color:#000000"/>
			</linearGradient>
			<path style="fill:url(#SVGID_00000097486522358217866970000004248971987444392861_);" d="M202.3,355.9
				c-24-13.2-43,12.2-47.2,20.3c-5.4,10.5-14.9,45.9,5.9,56c26.1,12.8,40.7-15.6,43.1-20.6C206.5,406.6,228.1,370.1,202.3,355.9z"/>
		</g>
	</mask>
	<path style="mask:url(#SVGID_00000150079805374188563000000000496660573970634412_);fill:#FFE9D9;" d="M202.3,355.9
		c-24-13.2-43,12.2-47.2,20.3c-5.4,10.5-14.9,45.9,5.9,56c26.1,12.8,40.7-15.6,43.1-20.6C206.5,406.6,228.1,370.1,202.3,355.9z"/>
	<defs>
		
			<filter id="Adobe_OpacityMaskFilter_00000154410642673889193600000006573584290130134702_" filterUnits="userSpaceOnUse" x="195.3" y="399" width="71.4" height="89.3">
			<feColorMatrix  type="matrix" values="1 0 0 0 0  0 1 0 0 0  0 0 1 0 0  0 0 0 1 0"/>
		</filter>
	</defs>
	
		<mask maskUnits="userSpaceOnUse" x="195.3" y="399" width="71.4" height="89.3" id="SVGID_00000093147724061151436250000010585282390976863911_">
		<g style="filter:url(#Adobe_OpacityMaskFilter_00000154410642673889193600000006573584290130134702_);">
			
				<linearGradient id="SVGID_00000014593550348810392540000009842536259197871031_" gradientUnits="userSpaceOnUse" x1="-70.0946" y1="714.5197" x2="-111.5859" y2="787.8234" gradientTransform="matrix(0.9903 0.1391 -0.1391 0.9903 424.682 -289.2925)">
				<stop  offset="0" style="stop-color:#FFFFFF"/>
				<stop  offset="1" style="stop-color:#000000"/>
			</linearGradient>
			<path style="fill:url(#SVGID_00000014593550348810392540000009842536259197871031_);" d="M257.2,405.2
				c-21.8-17.8-44.4,7.3-49.8,15.5c-7,10.7-21.8,48-2.8,61.9c23.9,17.6,42.7-11.4,45.9-16.4C253.6,461.2,280.6,424.3,257.2,405.2z"
				/>
		</g>
	</mask>
	<path style="mask:url(#SVGID_00000093147724061151436250000010585282390976863911_);fill:#FFE9D9;" d="M257.2,405.2
		c-21.8-17.8-44.4,7.3-49.8,15.5c-7,10.7-21.8,48-2.8,61.9c23.9,17.6,42.7-11.4,45.9-16.4C253.6,461.2,280.6,424.3,257.2,405.2z"/>
	<defs>
		
			<filter id="Adobe_OpacityMaskFilter_00000028282697642671938600000017848072101321489849_" filterUnits="userSpaceOnUse" x="247.8" y="444.5" width="65.9" height="82.4">
			<feColorMatrix  type="matrix" values="1 0 0 0 0  0 1 0 0 0  0 0 1 0 0  0 0 0 1 0"/>
		</filter>
	</defs>
	
		<mask maskUnits="userSpaceOnUse" x="247.8" y="444.5" width="65.9" height="82.4" id="SVGID_00000088105479990036944170000011360003517773709451_">
		<g style="filter:url(#Adobe_OpacityMaskFilter_00000028282697642671938600000017848072101321489849_);">
			
				<linearGradient id="SVGID_00000150798065918148214780000017361555397182861754_" gradientUnits="userSpaceOnUse" x1="-16.3789" y1="752.1582" x2="-54.6966" y2="819.8553" gradientTransform="matrix(0.9903 0.1391 -0.1391 0.9903 424.682 -289.2925)">
				<stop  offset="0" style="stop-color:#FFFFFF"/>
				<stop  offset="1" style="stop-color:#000000"/>
			</linearGradient>
			<path style="fill:url(#SVGID_00000150798065918148214780000017361555397182861754_);" d="M305,450.2c-20.1-16.4-41,6.7-46,14.4
				c-6.5,9.9-20.1,44.3-2.6,57.2c22.1,16.2,39.4-10.5,42.3-15.2C301.7,501.9,326.6,467.8,305,450.2z"/>
		</g>
	</mask>
	<path style="mask:url(#SVGID_00000088105479990036944170000011360003517773709451_);fill:#FFE9D9;" d="M305,450.2
		c-20.1-16.4-41,6.7-46,14.4c-6.5,9.9-20.1,44.3-2.6,57.2c22.1,16.2,39.4-10.5,42.3-15.2C301.7,501.9,326.6,467.8,305,450.2z"/>
	<defs>
		
			<filter id="Adobe_OpacityMaskFilter_00000088823688744972710460000000978175484316973247_" filterUnits="userSpaceOnUse" x="304.2" y="491.8" width="55" height="75.9">
			<feColorMatrix  type="matrix" values="1 0 0 0 0  0 1 0 0 0  0 0 1 0 0  0 0 0 1 0"/>
		</filter>
	</defs>
	
		<mask maskUnits="userSpaceOnUse" x="304.2" y="491.8" width="55" height="75.9" id="SVGID_00000183949042937454688180000005917650983367297177_">
		<g style="filter:url(#Adobe_OpacityMaskFilter_00000088823688744972710460000000978175484316973247_);">
			
				<linearGradient id="SVGID_00000070820289744399807810000004143977127566518932_" gradientUnits="userSpaceOnUse" x1="1602.9553" y1="-112.0151" x2="1570.3312" y2="-54.3771" gradientTransform="matrix(1.0905 -0.4573 0.3867 0.9222 -1366.2794 1331.0078)">
				<stop  offset="0" style="stop-color:#FFFFFF"/>
				<stop  offset="1" style="stop-color:#000000"/>
			</linearGradient>
			<path style="fill:url(#SVGID_00000070820289744399807810000004143977127566518932_);" d="M338.1,491.8
				c-25-1.9-32.8,25.2-33.6,33.2c-1.2,10.3,2.6,42,23.8,42.6c26.7,0.8,29.7-27.1,30.1-31.9C358.7,530.9,365,493.9,338.1,491.8z"/>
		</g>
	</mask>
	<path style="mask:url(#SVGID_00000183949042937454688180000005917650983367297177_);fill:#FFE9D9;" d="M338.1,491.8
		c-25-1.9-32.8,25.2-33.6,33.2c-1.2,10.3,2.6,42,23.8,42.6c26.7,0.8,29.7-27.1,30.1-31.9C358.7,530.9,365,493.9,338.1,491.8z"/>
	<path class="st19" d="M781.6,48.1c-25.8,8.8-58.8,16-102.6,12.9c-83.5-5.9-147.2-46.2-147.2-46.2S507.3,0.5,478.2,0
		c-29.8-0.5-67,35.5-77.2,44.5c-5.4,4.8-14.1,12.1-24.4,20.5l0,0c0,0,15.1-10.7,33.7-25.9C431.1,22.4,446.7,0.8,488.8,4
		c42.1,3.2,38.6,32,95.6,52.5c57.1,20.4,99.2,21,135,13.2C755.3,61.9,781.6,48.1,781.6,48.1z"/>
	<defs>
		
			<filter id="Adobe_OpacityMaskFilter_00000153667973356267957890000016339572085146188171_" filterUnits="userSpaceOnUse" x="326.3" y="11.2" width="395.9" height="166.5">
			<feColorMatrix  type="matrix" values="1 0 0 0 0  0 1 0 0 0  0 0 1 0 0  0 0 0 1 0"/>
		</filter>
	</defs>
	
		<mask maskUnits="userSpaceOnUse" x="326.3" y="11.2" width="395.9" height="166.5" id="SVGID_00000060710355157769080610000017372086241701195905_">
		<g style="filter:url(#Adobe_OpacityMaskFilter_00000153667973356267957890000016339572085146188171_);">
			
				<linearGradient id="SVGID_00000084508250573381170180000001602831189016422334_" gradientUnits="userSpaceOnUse" x1="186.3039" y1="94.492" x2="686.8078" y2="94.492">
				<stop  offset="0" style="stop-color:#FFFFFF"/>
				<stop  offset="1" style="stop-color:#000000"/>
			</linearGradient>
			<path style="fill:url(#SVGID_00000084508250573381170180000001602831189016422334_);" d="M331.3,143.4
				c-11.6-12.4-0.4-32.1,9.6-44.9c10-12.8,42.7-31.1,60.1-43.3c25.6-18,46-44.3,77.3-44.1c46.9,0.3,49.1,35.6,134.9,57.1
				c73.3,18.3,109.1,4.2,109.1,4.2l-37.9,85.6c0,0-63.2,33.9-130,12.5c-69.2-22.1-79.7-58.2-84.9-60.1c-8-2.9-28,26.4-77.7,42.5
				C355.1,164.9,342.9,155.9,331.3,143.4z"/>
		</g>
	</mask>
	<path style="mask:url(#SVGID_00000060710355157769080610000017372086241701195905_);fill:#FFE1C5;" d="M331.3,143.4
		c-11.6-12.4-0.4-32.1,9.6-44.9c10-12.8,42.7-31.1,60.1-43.3c25.6-18,46-44.3,77.3-44.1c46.9,0.3,49.1,35.6,134.9,57.1
		c73.3,18.3,109.1,4.2,109.1,4.2l-37.9,85.6c0,0-63.2,33.9-130,12.5c-69.2-22.1-79.7-58.2-84.9-60.1c-8-2.9-28,26.4-77.7,42.5
		C355.1,164.9,342.9,155.9,331.3,143.4z"/>
	<defs>
		
			<filter id="Adobe_OpacityMaskFilter_00000093141847947166103300000009643378368637777033_" filterUnits="userSpaceOnUse" x="647.5" y="166.1" width="278" height="204.3">
			<feColorMatrix  type="matrix" values="1 0 0 0 0  0 1 0 0 0  0 0 1 0 0  0 0 0 1 0"/>
		</filter>
	</defs>
	
		<mask maskUnits="userSpaceOnUse" x="647.5" y="166.1" width="278" height="204.3" id="SVGID_00000142887382982871257810000014740531333506617750_">
		<g style="filter:url(#Adobe_OpacityMaskFilter_00000093141847947166103300000009643378368637777033_);">
			
				<linearGradient id="SVGID_00000083090443372701979400000017867363821316858795_" gradientUnits="userSpaceOnUse" x1="680.2153" y1="423.8898" x2="812.7363" y2="200.6006">
				<stop  offset="0" style="stop-color:#FFFFFF"/>
				<stop  offset="1" style="stop-color:#000000"/>
			</linearGradient>
			<path style="fill:url(#SVGID_00000083090443372701979400000017867363821316858795_);" d="M704.2,208.5
				c-11.5,3.2-31.1,9-43.9,32.5c-8.6,15.7-16.4,31.3-11.2,45.3c2.5,6.8,21.9,25,41.9,43.3c21,19.3,38.5,39.5,50.3,40.9
				c13.5,1.6,21.4-20.4,52.9-41.9c26.8-18.3,92.3-41.1,111.6-68.7c26-37.5,22-83.4,12.4-89.5c-19.8-12.6-87.9,6.6-123.2,16.4
				C759.7,196.5,720.2,204.1,704.2,208.5z"/>
		</g>
	</mask>
	<path style="mask:url(#SVGID_00000142887382982871257810000014740531333506617750_);fill:#FFE9D9;" d="M704.2,208.5
		c-11.5,3.2-31.1,9-43.9,32.5c-8.6,15.7-16.4,31.3-11.2,45.3c2.5,6.8,21.9,25,41.9,43.3c21,19.3,38.5,39.5,50.3,40.9
		c13.5,1.6,21.4-20.4,52.9-41.9c26.8-18.3,92.3-41.1,111.6-68.7c26-37.5,22-83.4,12.4-89.5c-19.8-12.6-87.9,6.6-123.2,16.4
		C759.7,196.5,720.2,204.1,704.2,208.5z"/>
	<defs>
		
			<filter id="Adobe_OpacityMaskFilter_00000083800840251617047900000005264453366816866698_" filterUnits="userSpaceOnUse" x="516.9" y="231.3" width="249.1" height="211.2">
			<feColorMatrix  type="matrix" values="1 0 0 0 0  0 1 0 0 0  0 0 1 0 0  0 0 0 1 0"/>
		</filter>
	</defs>
	
		<mask maskUnits="userSpaceOnUse" x="516.9" y="231.3" width="249.1" height="211.2" id="SVGID_00000016760238827320052750000012948509255784248200_">
		<g style="filter:url(#Adobe_OpacityMaskFilter_00000083800840251617047900000005264453366816866698_);">
			
				<linearGradient id="SVGID_00000042724890321919336550000013907531608396486824_" gradientUnits="userSpaceOnUse" x1="851.8986" y1="473.4663" x2="535.7198" y2="272.36">
				<stop  offset="0" style="stop-color:#FFFFFF"/>
				<stop  offset="1" style="stop-color:#000000"/>
			</linearGradient>
			<path style="fill:url(#SVGID_00000042724890321919336550000013907531608396486824_);" d="M756.5,401.2
				c10.5,9.9,10.5,20.1,8.4,27.3c-2.1,7.2-16.2,20.4-43.3,10.2c-29.4-11.1-70.6-35.5-103.7-57.1c-54.4-35.6-103.9-69.4-101-73.9
				c4.8-7.5,25.2-7.2,38.2-24.5c18.4-24.7,0.3-48.2,4.2-51.8c3.9-3.6,78.7,63.1,112.1,92.8C704.8,354.1,746,391.3,756.5,401.2z"/>
		</g>
	</mask>
	<path style="mask:url(#SVGID_00000016760238827320052750000012948509255784248200_);fill:#FFE9D9;" d="M756.5,401.2
		c10.5,9.9,10.5,20.1,8.4,27.3c-2.1,7.2-16.2,20.4-43.3,10.2c-29.4-11.1-70.6-35.5-103.7-57.1c-54.4-35.6-103.9-69.4-101-73.9
		c4.8-7.5,25.2-7.2,38.2-24.5c18.4-24.7,0.3-48.2,4.2-51.8c3.9-3.6,78.7,63.1,112.1,92.8C704.8,354.1,746,391.3,756.5,401.2z"/>
	<defs>
		
			<filter id="Adobe_OpacityMaskFilter_00000114058622008302229490000008025962987962204068_" filterUnits="userSpaceOnUse" x="460.2" y="313.3" width="253.8" height="180.3">
			<feColorMatrix  type="matrix" values="1 0 0 0 0  0 1 0 0 0  0 0 1 0 0  0 0 0 1 0"/>
		</filter>
	</defs>
	
		<mask maskUnits="userSpaceOnUse" x="460.2" y="313.3" width="253.8" height="180.3" id="SVGID_00000096752031349120641880000013080444678613399467_">
		<g style="filter:url(#Adobe_OpacityMaskFilter_00000114058622008302229490000008025962987962204068_);">
			
				<linearGradient id="SVGID_00000034089450613106296320000002390987190914673538_" gradientUnits="userSpaceOnUse" x1="992.0948" y1="320.5529" x2="771.2657" y2="154.0072" gradientTransform="matrix(0.9945 -0.1046 0.1046 0.9945 -284.8639 284.9837)">
				<stop  offset="0" style="stop-color:#FFFFFF"/>
				<stop  offset="1" style="stop-color:#000000"/>
			</linearGradient>
			<path style="fill:url(#SVGID_00000034089450613106296320000002390987190914673538_);" d="M702.7,452.8
				c10.8,8.2,12.6,17.9,10.5,24.6c-3.9,12.7-15.6,20.5-41.8,13.7c-28.4-7.4-67.6-28.5-97.6-45.1c-53.3-29.3-115.8-63.7-113.6-68.2
				c3.7-7.5,16.2-3.3,30.6-23.1c17-23.3,6.6-37.4,9.9-41.2c3.3-3.7,47.8,43.9,104,80.8C639.7,417.3,692,444.6,702.7,452.8z"/>
		</g>
	</mask>
	<path style="mask:url(#SVGID_00000096752031349120641880000013080444678613399467_);fill:#FFE9D9;" d="M702.7,452.8
		c10.8,8.2,12.6,17.9,10.5,24.6c-3.9,12.7-15.6,20.5-41.8,13.7c-28.4-7.4-67.6-28.5-97.6-45.1c-53.3-29.3-115.8-63.7-113.6-68.2
		c3.7-7.5,16.2-3.3,30.6-23.1c17-23.3,6.6-37.4,9.9-41.2c3.3-3.7,47.8,43.9,104,80.8C639.7,417.3,692,444.6,702.7,452.8z"/>
	<defs>
		
			<filter id="Adobe_OpacityMaskFilter_00000162343624278627921940000012687844417945782436_" filterUnits="userSpaceOnUse" x="401.9" y="382.9" width="254.2" height="160.4">
			<feColorMatrix  type="matrix" values="1 0 0 0 0  0 1 0 0 0  0 0 1 0 0  0 0 0 1 0"/>
		</filter>
	</defs>
	
		<mask maskUnits="userSpaceOnUse" x="401.9" y="382.9" width="254.2" height="160.4" id="SVGID_00000092435719843023913280000018008014587523775378_">
		<g style="filter:url(#Adobe_OpacityMaskFilter_00000162343624278627921940000012687844417945782436_);">
			
				<linearGradient id="SVGID_00000156572649913032112360000002823134602176498098_" gradientUnits="userSpaceOnUse" x1="1107.2996" y1="301.983" x2="872.768" y2="121.3903" gradientTransform="matrix(0.987 -0.1607 0.1607 0.987 -428.3956 448.0677)">
				<stop  offset="0" style="stop-color:#FFFFFF"/>
				<stop  offset="1" style="stop-color:#000000"/>
			</linearGradient>
			<path style="fill:url(#SVGID_00000156572649913032112360000002823134602176498098_);" d="M641.7,499.8
				c11.2,7.6,15.8,17.8,14.1,24.6c-3.2,12.9-13.8,22.8-40.3,17.4c-28.8-5.8-69.8-25-100.7-40c-52.5-25.5-114.2-57.7-113-61.6
				c2.5-8,14.5,1.3,33.9-21c16.5-18.9,9-32.1,12-36.1c3.1-3.9,37.5,31.8,95.8,65.3C609.6,486.3,630.5,492.2,641.7,499.8z"/>
		</g>
	</mask>
	<path style="mask:url(#SVGID_00000092435719843023913280000018008014587523775378_);fill:#FFE9D9;" d="M641.7,499.8
		c11.2,7.6,15.8,17.8,14.1,24.6c-3.2,12.9-13.8,22.8-40.3,17.4c-28.8-5.8-69.8-25-100.7-40c-52.5-25.5-114.2-57.7-113-61.6
		c2.5-8,14.5,1.3,33.9-21c16.5-18.9,9-32.1,12-36.1c3.1-3.9,37.5,31.8,95.8,65.3C609.6,486.3,630.5,492.2,641.7,499.8z"/>
	<defs>
		
			<filter id="Adobe_OpacityMaskFilter_00000023277025529592940160000010510072962375234961_" filterUnits="userSpaceOnUse" x="368" y="446.3" width="224.7" height="137.8">
			<feColorMatrix  type="matrix" values="1 0 0 0 0  0 1 0 0 0  0 0 1 0 0  0 0 0 1 0"/>
		</filter>
	</defs>
	
		<mask maskUnits="userSpaceOnUse" x="368" y="446.3" width="224.7" height="137.8" id="SVGID_00000123424350502091222120000014212210871582718353_">
		<g style="filter:url(#Adobe_OpacityMaskFilter_00000023277025529592940160000010510072962375234961_);">
			
				<linearGradient id="SVGID_00000155148390014808533570000009638081993201636270_" gradientUnits="userSpaceOnUse" x1="654.7078" y1="625.4398" x2="375.2557" y2="471.0708">
				<stop  offset="0" style="stop-color:#FFFFFF"/>
				<stop  offset="1" style="stop-color:#000000"/>
			</linearGradient>
			<path style="fill:url(#SVGID_00000155148390014808533570000009638081993201636270_);" d="M390.2,446.3c2.4-1.5,67,42.7,98.7,59.2
				c31.7,16.5,83.1,38.8,89.2,40.3c6.2,1.5,13.8,7.1,14.4,15.2c0.5,6.7-6.5,22.8-27.9,23.1c-38,0.5-88.6-23-113.9-34.4
				c-22.7-10.3-65.3-35-70.9-38.8c-1.6-1-4-6-6.6-11c-2.7-5.1-5.6-10.2-5.3-11.3c0.8-2.1,10.8-1.8,18-15
				C392.4,461.9,387.8,447.8,390.2,446.3z"/>
		</g>
	</mask>
	<path style="mask:url(#SVGID_00000123424350502091222120000014212210871582718353_);fill:#FFE9D9;" d="M390.2,446.3
		c2.4-1.5,67,42.7,98.7,59.2c31.7,16.5,83.1,38.8,89.2,40.3c6.2,1.5,13.8,7.1,14.4,15.2c0.5,6.7-6.5,22.8-27.9,23.1
		c-38,0.5-88.6-23-113.9-34.4c-22.7-10.3-65.3-35-70.9-38.8c-1.6-1-4-6-6.6-11c-2.7-5.1-5.6-10.2-5.3-11.3c0.8-2.1,10.8-1.8,18-15
		C392.4,461.9,387.8,447.8,390.2,446.3z"/>
</g>
</svg>
